<svg height="200px" width="200px" version="1.1" id="Layer_1" xmlns="http://www.w3.org/2000/svg" xmlns:xlink="http://www.w3.org/1999/xlink" viewBox="0 0 202.001 202.001" xml:space="preserve" fill="#0094f7" stroke="#ffffff">
    <g id="SVGRepo_bgCarrier" stroke-width="0">
        <rect x="0" y="0" width="100%" height="100%" fill="#0094f7" />
    </g>
    <g id="SVGRepo_tracerCarrier" stroke-linecap="round" stroke-linejoin="round"></g>
    <g id="SVGRepo_iconCarrier">
        <path style="fill:#ffffff;" d="M197.149,70.987h-61.284c-2.679,0-4.851-2.172-4.851-4.851V4.852c0-2.679-2.172-4.851-4.851-4.851 H75.836c-2.679,0-4.851,2.172-4.851,4.851v61.284c0,2.679-2.172,4.851-4.851,4.851H4.851C2.172,70.987,0,73.159,0,75.837v50.327 c0,2.679,2.172,4.851,4.851,4.851h61.284c2.679,0,4.851,2.172,4.851,4.851v61.284c0,2.679,2.172,4.851,4.851,4.851h50.327 c2.679,0,4.851-2.172,4.851-4.851v-61.284c0-2.679,2.172-4.851,4.851-4.851h61.284c2.679,0,4.851-2.172,4.851-4.851V75.837 C202,73.159,199.828,70.987,197.149,70.987z"></path>
        <path style="fill:#ffffff;" d="M101,0.001H75.836c-2.679,0-4.851,2.172-4.851,4.851v61.284c0,2.679-2.172,4.851-4.851,4.851H4.851 C2.172,70.987,0,73.159,0,75.837v50.327c0,2.679,2.172,4.851,4.851,4.851h61.284c2.679,0,4.851,2.172,4.851,4.851v61.284 c0,2.679,2.172,4.851,4.851,4.851H101V0.001z"></path>
    </g>
</svg>
